<svg width="80" height="80" xmlns="http://www.w3.org/2000/svg">

 <g>
  <title>Layer 1</title>
  <rect rx="10" stroke="#ffffff" id="svg_14" height="77.83334" width="77.66668" y="1.22211" x="1.16677" stroke-width="2" fill="#ffffff"/>
  <rect stroke="#935d8c" stroke-width="3" rx="5" id="svg_1" height="34.79026" width="34.79026" y="29.22454" x="17.24722" fill="#fff"/>
  <rect transform="rotate(-47.7087 47.9028 32.1487)" stroke="#935d8c" id="svg_2" height="9.61885" width="33.79116" y="27.33931" x="31.00718" stroke-width="2" fill="#935d8c"/>
  <rect transform="rotate(-47.7087 60.3802 18.4632)" rx="1" stroke="#935d8c" id="svg_3" height="9.61885" width="7.51956" y="13.65376" x="56.62041" stroke-width="2" fill="#935d8c"/>
  <line transform="rotate(13 58.3871 21.2931)" stroke="#ffffff" id="svg_4" y2="24.46915" x2="64.21109" y1="18.11708" x1="52.5632" stroke-width="2" fill="none"/>
  <line transform="rotate(-121.037 31.4942 46.2475)" stroke="#935d8c" id="svg_5" y2="49.42355" x2="35.12454" y1="43.07148" x1="27.86388" stroke-width="1.5" fill="none"/>
  <line transform="rotate(-57.4408 35.368 49.8833)" stroke="#935d8c" id="svg_6" y2="53.05932" x2="38.99828" y1="46.70725" x1="31.73762" stroke-width="1.5" fill="none"/>
  <path transform="rotate(-140 31.249 50.7496)" stroke="#935d8c" id="svg_10" d="m29.33856,52.45533l1.91042,-3.41142l1.91042,3.41142l-3.82083,0z" fill="#935d8c"/>
  <line transform="rotate(-89 40.7026 28.4558)" stroke="#ffffff" id="svg_12" y2="31.63186" x2="44.33289" y1="25.27979" x1="37.07223" stroke-width="4" fill="none"/>
  <line transform="rotate(-89 52.3276 38.8517)" stroke="#ffffff" id="svg_13" y2="42.02769" x2="55.95788" y1="35.67562" x1="48.69722" stroke-width="4" fill="none"/>
 </g>
</svg>